<?xml version="1.0" encoding="utf-8"?>
<svg viewBox="0 0 500 500" xmlns="http://www.w3.org/2000/svg">
  <path style="stroke: rgb(0, 0, 0);" d="M 171.532 167.553 C 157.002 131.515 161.174 99.596 198.7 42.01 C 180.244 82.26 181.209 94.78 184.007 107.73 C 185.138 112.765 187.58 116.456 190.481 118.463 C 193.416 120.492 197.114 120.983 200.328 119.872 C 203.517 118.769 206.589 115.992 208.499 111.834 C 210.386 107.727 211.092 103.184 210.691 97.108 C 220.174 105.848 223.416 122.32 223.859 146.696 C 224.303 171.101 222.016 194.52 219.774 221.99 C 218.867 209.563 218.269 196.996 216.724 173.631 C 215.952 161.948 215.114 150.867 214.196 142.741 C 213.735 138.673 213.251 135.309 212.744 132.989 C 212.487 131.816 212.207 130.843 211.922 130.194 C 211.771 129.849 211.564 129.499 211.368 129.286 C 211.128 129.024 210.596 128.834 210.212 128.804 L 210.193 128.802 L 210.115 128.82 C 203.274 130.353 198.431 130.121 194.667 129.802 C 190.92 129.486 188.047 129.043 185.639 130.329 C 181.022 132.797 178.352 141.26 171.532 167.553 Z"/>
  <path stroke-width="0" d="M 267.433 68.875 C 270.593 84.491 262.531 113.601 250.952 114.402 C 237.599 115.325 229.772 78.586 232.373 68.185 C 237.267 48.617 263.421 49.048 267.433 68.875 Z" style="stroke-width: 2px; stroke: rgb(0, 0, 0);"/>
  <path style="stroke: rgb(0, 0, 0);" d="M 197.86 296.587 L 214.295 274.175 C 217.464 263.609 286.545 264.24 283.792 273.42 L 296.537 292.164 C 288.297 300.404 368.979 317.843 369.5 317.322 L 292.2 312.225 L 275.191 294.478 C 275.191 287.559 226.536 288.284 226.536 295.203 L 208.039 311.483 L 130.5 317.581 C 132.588 318.416 205.041 299.458 197.86 296.587 Z"/>
  <path style="stroke: rgb(0, 0, 0); transform-origin: 302.042px 132px;" d="M 279.73 96.447 C 265.2 132.485 269.372 164.404 306.898 221.99 C 288.442 181.74 289.407 169.22 292.205 156.27 C 293.336 151.235 295.778 147.544 298.679 145.537 C 301.614 143.508 305.312 143.017 308.526 144.128 C 311.715 145.231 314.787 148.008 316.697 152.166 C 318.584 156.273 319.29 160.816 318.889 166.892 C 328.372 158.152 331.614 141.68 332.057 117.304 C 332.501 92.899 330.214 69.48 327.972 42.01 C 327.065 54.437 326.467 67.004 324.922 90.369 C 324.15 102.052 323.312 113.133 322.394 121.259 C 321.933 125.327 321.449 128.691 320.942 131.011 C 320.685 132.184 320.405 133.157 320.12 133.806 C 319.969 134.151 319.762 134.501 319.566 134.714 C 319.326 134.976 318.794 135.166 318.41 135.196 L 318.391 135.198 L 318.313 135.18 C 311.472 133.647 306.629 133.879 302.865 134.198 C 299.118 134.514 296.245 134.957 293.837 133.671 C 289.22 131.203 286.55 122.74 279.73 96.447 Z" transform="matrix(-1, 0, 0, -1, 0.000009001544, 0.000003933907)"/>
  <path style="stroke: rgb(0, 0, 0);" d="M 50.033 205.42 L 61.752 230.421 L 57.419 253.186 L 76.132 245.8 L 100.753 261.557 L 78.073 238.385 L 64.806 244.322 L 68.154 229.591 L 50.033 205.42 Z"/>
  <path style="stroke: rgb(0, 0, 0);" d="M 35.795 269.441 L 54.146 377.102 L 171.455 468.483 L 185.663 458.459 L 209.63 484.128 L 185.739 445.398 L 169.758 459.682 L 62.098 371.597 L 47.417 277.393 L 48.769 273.119 L 57.855 280.728 L 81.493 267.445 L 121.789 278.026 L 81.042 260.016 L 56.955 266.544 L 43.223 253.713 L 47.95 229.4 L 26.789 192.706 L 39.621 231.876 L 30.165 257.54 L 37.723 263.869 L 35.795 269.441 Z"/>
  <path style="stroke: rgb(0, 0, 0);" d="M 205.265 447.631 L 219.269 486.672 L 217.996 449.328 L 205.265 447.631 Z"/>
  <path style="stroke: rgb(0, 0, 0); transform-origin: 424.608px 232.111px;" d="M 399.248 260.179 L 410.967 235.178 L 406.634 212.413 L 425.347 219.799 L 449.968 204.042 L 427.288 227.214 L 414.021 221.277 L 417.369 236.008 L 399.248 260.179 Z" transform="matrix(-1, 0, 0, -1, 0.000073689461, -0.000054117725)"/>
  <path style="stroke: rgb(0, 0, 0); transform-origin: 381.792px 337.039px;" d="M 299.377 406.015 L 317.728 298.354 L 435.037 206.973 L 449.245 216.997 L 473.212 191.328 L 449.321 230.058 L 433.34 215.774 L 325.68 303.859 L 310.999 398.063 L 312.351 402.337 L 321.437 394.728 L 345.075 408.011 L 385.371 397.43 L 344.624 415.44 L 320.537 408.912 L 306.805 421.743 L 311.532 446.056 L 290.371 482.75 L 303.203 443.58 L 293.747 417.916 L 301.305 411.587 L 299.377 406.015 Z" transform="matrix(-1, 0, 0, -1, 0.000011378274, 0.000010044546)"/>
  <path style="stroke: rgb(0, 0, 0); transform-origin: 287.733px 465.774px;" d="M 280.731 485.294 L 294.735 446.253 L 293.462 483.597 L 280.731 485.294 Z" transform="matrix(-1, 0, 0, -1, 0.000069610256, -0.000047154022)"/>
</svg>